<svg width="100" height="28" viewBox="0 0 100 28" fill="none" xmlns="http://www.w3.org/2000/svg">
<path d="M11.816 4.344C13.8507 4.344 15.4 4.81067 16.464 5.744C17.528 6.65867 18.06 7.85333 18.06 9.328C18.06 9.75733 18.0227 10.1587 17.948 10.532C17.724 11.8387 17.1547 13.0053 16.24 14.032C15.3253 15.0587 14.1027 15.7867 12.572 16.216L15.736 24H10.332L7.56 16.58H6.412L5.096 24H0.308L3.78 4.344H11.816ZM13.048 10.728C13.0853 10.4293 13.104 10.2333 13.104 10.14C13.104 9.54267 12.908 9.08533 12.516 8.768C12.1427 8.432 11.5827 8.264 10.836 8.264H7.868L7 13.192H9.968C10.8453 13.192 11.536 12.9773 12.04 12.548C12.5627 12.1187 12.8987 11.512 13.048 10.728ZM29.6336 4.344L26.1616 24H21.3736L24.8456 4.344H29.6336ZM48.6994 4.344L48.0274 8.124H40.0194L39.2914 12.352H45.2834L44.6114 15.992H38.6194L37.2194 24H32.4314L35.9034 4.344H48.6994ZM63.3959 20.528H56.0599L54.2679 24H49.2559L59.8399 4.344H65.3839L69.0239 24H63.9559L63.3959 20.528ZM62.8359 16.888L61.6879 9.608L57.9359 16.888H62.8359ZM81.8005 24.196C79.6725 24.196 77.9365 23.7387 76.5925 22.824C75.2671 21.8907 74.6045 20.5747 74.6045 18.876C74.6045 18.708 74.6231 18.456 74.6605 18.12H79.6445C79.5885 18.8293 79.7565 19.3893 80.1485 19.8C80.5405 20.2107 81.1378 20.416 81.9405 20.416C82.6685 20.416 83.2378 20.2573 83.6485 19.94C84.0778 19.6227 84.2925 19.1747 84.2925 18.596C84.2925 17.9987 84.0218 17.5133 83.4805 17.14C82.9578 16.7667 82.1365 16.3467 81.0165 15.88C79.9338 15.432 79.0471 15.012 78.3565 14.62C77.6845 14.2093 77.0965 13.6587 76.5925 12.968C76.0885 12.2773 75.8365 11.4093 75.8365 10.364C75.8178 9.076 76.1351 7.956 76.7885 7.004C77.4418 6.052 78.3471 5.324 79.5045 4.82C80.6618 4.316 81.9871 4.064 83.4805 4.064C84.8245 4.064 86.0191 4.27867 87.0645 4.708C88.1098 5.11867 88.9218 5.72533 89.5005 6.528C90.0791 7.312 90.3685 8.24533 90.3685 9.328C90.3685 9.608 90.3591 9.81333 90.3405 9.944H85.2445C85.2631 9.86933 85.2725 9.75733 85.2725 9.608C85.2725 9.08533 85.0858 8.66533 84.7125 8.348C84.3578 8.012 83.8631 7.844 83.2285 7.844C82.5565 7.844 82.0058 8.012 81.5765 8.348C81.1658 8.66533 80.9605 9.104 80.9605 9.664C80.9605 10.224 81.2218 10.7 81.7445 11.092C82.2671 11.4653 83.0791 11.904 84.1805 12.408C85.2818 12.912 86.1778 13.3787 86.8685 13.808C87.5778 14.2373 88.1845 14.816 88.6885 15.544C89.1925 16.2533 89.4445 17.1307 89.4445 18.176C89.4445 19.3333 89.1365 20.3693 88.5205 21.284C87.9045 22.1987 87.0178 22.9173 85.8605 23.44C84.7031 23.944 83.3498 24.196 81.8005 24.196Z" fill="black"/>
<path d="M94.52 24.224C93.7733 24.224 93.176 24.028 92.728 23.636C92.2987 23.2253 92.084 22.712 92.084 22.096C92.084 21.2373 92.4013 20.5093 93.036 19.912C93.6893 19.3147 94.492 19.016 95.444 19.016C96.172 19.016 96.7507 19.2213 97.18 19.632C97.6093 20.024 97.824 20.5373 97.824 21.172C97.824 22.012 97.4973 22.7307 96.844 23.328C96.2093 23.9253 95.4347 24.224 94.52 24.224Z" fill="#007DFA"/>
</svg>
